<svg width="41" height="41" viewBox="0 0 41 41" fill="none" xmlns="http://www.w3.org/2000/svg">
<rect x="1.5" y="1.01091" width="38" height="38" rx="3" stroke="#062630" stroke-width="2"/>
<path d="M14.64 25.4549L21.336 20.4389C22.264 19.7509 22.944 19.0469 23.376 18.3269C23.808 17.5909 24.024 16.7989 24.024 15.9509C24.024 14.8789 23.72 14.0389 23.112 13.4309C22.504 12.8069 21.664 12.4949 20.592 12.4949C19.584 12.4949 18.76 12.8069 18.12 13.4309C17.48 14.0549 17.032 14.9669 16.776 16.1669H14.136C14.2 14.8709 14.52 13.7589 15.096 12.8309C15.688 11.8869 16.456 11.1669 17.4 10.6709C18.36 10.1749 19.424 9.92691 20.592 9.92691C21.84 9.92691 22.92 10.1829 23.832 10.6949C24.76 11.1909 25.48 11.8869 25.992 12.7829C26.504 13.6789 26.76 14.7349 26.76 15.9509C26.76 17.1989 26.44 18.3589 25.8 19.4309C25.16 20.5029 24.192 21.5109 22.896 22.4549L16.968 26.7029V26.9429H26.376V29.5109H14.64V25.4549Z" fill="#062630"/>
</svg>
