<svg width="40" height="41" viewBox="0 0 40 41" fill="none" xmlns="http://www.w3.org/2000/svg">
<rect x="1" y="1.01091" width="38" height="38" rx="3" stroke="#062630" stroke-width="2"/>
<path d="M26.26 24.3989C26.26 25.4869 25.988 26.4469 25.444 27.2789C24.916 28.1109 24.188 28.7589 23.26 29.2229C22.332 29.6709 21.268 29.8949 20.068 29.8949C18.756 29.8949 17.62 29.6629 16.66 29.1989C15.7 28.7189 14.956 28.0309 14.428 27.1349C13.9 26.2229 13.62 25.1429 13.588 23.8949H16.204C16.364 24.9989 16.78 25.8469 17.452 26.4389C18.124 27.0309 18.988 27.3269 20.044 27.3269C20.732 27.3269 21.332 27.1989 21.844 26.9429C22.372 26.6869 22.78 26.3269 23.068 25.8629C23.356 25.3829 23.5 24.8309 23.5 24.2069C23.5 23.2629 23.196 22.4949 22.588 21.9029C21.996 21.3109 21.204 21.0149 20.212 21.0149H17.956V18.4709H20.212C21.236 18.4709 22.06 18.1989 22.684 17.6549C23.308 17.1109 23.62 16.4069 23.62 15.5429C23.62 14.6309 23.3 13.8949 22.66 13.3349C22.036 12.7749 21.196 12.4949 20.14 12.4949C19.036 12.4949 18.14 12.8069 17.452 13.4309C16.764 14.0549 16.308 14.9669 16.084 16.1669H13.468C13.532 14.8389 13.844 13.7109 14.404 12.7829C14.964 11.8549 15.732 11.1509 16.708 10.6709C17.684 10.1749 18.836 9.92691 20.164 9.92691C21.38 9.92691 22.452 10.1509 23.38 10.5989C24.308 11.0469 25.028 11.6709 25.54 12.4709C26.068 13.2709 26.332 14.2309 26.332 15.3509C26.332 16.3909 26.052 17.2789 25.492 18.0149C24.948 18.7509 24.22 19.2389 23.308 19.4789V19.8629C24.204 20.1029 24.916 20.6309 25.444 21.4469C25.988 22.2469 26.26 23.2309 26.26 24.3989Z" fill="#062630"/>
</svg>
